<?xml version="1.0" encoding="UTF-8"?>
<svg width="267px" height="44px" viewBox="0 0 267 44" version="1.1" xmlns="http://www.w3.org/2000/svg" xmlns:xlink="http://www.w3.org/1999/xlink">
    <!-- Generator: Sketch 39.1 (31720) - http://www.bohemiancoding.com/sketch -->
    <title>dashboard</title>
    <desc>Created with Sketch.</desc>
    <defs></defs>
    <g id="logo---1.0" stroke="none" stroke-width="1" fill="none" fill-rule="evenodd">
        <g id="dashboard" transform="translate(-606.000000, -249.000000)" fill="#FFFFFF">
            <path d="M703.696,258.216 L711.424,258.216 L703.408,285 L694.576,285 L690.832,269.16 L687.04,285 L678.208,285 L670.192,258.216 L678.4,258.216 L682.576,277.032 L686.704,258.216 L695.392,258.216 L699.52,277.032 L703.696,258.216 Z M735.88,271.608 C735.88,269.431989 735.320006,267.776006 734.2,266.64 C733.079994,265.503994 731.752008,264.936 730.216,264.936 C728.679992,264.936 727.360006,265.503994 726.256,266.64 C725.151994,267.776006 724.6,269.431989 724.6,271.608 C724.6,273.784011 725.167994,275.447994 726.304,276.6 C727.440006,277.752006 728.775992,278.328 730.312,278.328 C731.848008,278.328 733.159995,277.752006 734.248,276.6 C735.336005,275.447994 735.88,273.784011 735.88,271.608 L735.88,271.608 Z M716.248,271.56 C716.248,267.431979 717.591987,264.128012 720.28,261.648 C722.968013,259.167988 726.29598,257.928 730.264,257.928 C734.23202,257.928 737.551987,259.167988 740.224,261.648 C742.896013,264.128012 744.232,267.431979 744.232,271.56 C744.232,275.688021 742.904013,279.015987 740.248,281.544 C737.591987,284.072013 734.28002,285.336 730.312,285.336 C726.34398,285.336 723.008014,284.072013 720.304,281.544 C717.599986,279.015987 716.248,275.688021 716.248,271.56 L716.248,271.56 Z M760.72,258.216 L760.72,263.208 C762.64001,259.687982 765.199984,257.928 768.4,257.928 L768.4,266.28 L766.384,266.28 C764.495991,266.28 763.080005,266.727996 762.136,267.624 C761.191995,268.520004 760.72,270.087989 760.72,272.328 L760.72,285 L752.512,285 L752.512,258.216 L760.72,258.216 Z M793.576,271.608 C793.576,269.431989 793.016006,267.776006 791.896,266.64 C790.775994,265.503994 789.448008,264.936 787.912,264.936 C786.375992,264.936 785.056006,265.503994 783.952,266.64 C782.847994,267.776006 782.296,269.431989 782.296,271.608 C782.296,273.784011 782.863994,275.447994 784,276.6 C785.136006,277.752006 786.471992,278.328 788.008,278.328 C789.544008,278.328 790.855995,277.752006 791.944,276.6 C793.032005,275.447994 793.576,273.784011 793.576,271.608 L793.576,271.608 Z M773.944,271.56 C773.944,267.431979 775.287987,264.128012 777.976,261.648 C780.664013,259.167988 783.99198,257.928 787.96,257.928 C791.92802,257.928 795.247987,259.167988 797.92,261.648 C800.592013,264.128012 801.928,267.431979 801.928,271.56 C801.928,275.688021 800.600013,279.015987 797.944,281.544 C795.287987,284.072013 791.97602,285.336 788.008,285.336 C784.03998,285.336 780.704014,284.072013 778,281.544 C775.295986,279.015987 773.944,275.688021 773.944,271.56 L773.944,271.56 Z M818.416,258.216 L818.416,262.152 C820.112008,259.335986 822.815981,257.928 826.528,257.928 C829.600015,257.928 832.08799,258.95199 833.992,261 C835.89601,263.04801 836.848,265.831982 836.848,269.352 L836.848,285 L828.688,285 L828.688,270.456 C828.688,268.727991 828.232005,267.392005 827.32,266.448 C826.407995,265.503995 825.152008,265.032 823.552,265.032 C821.951992,265.032 820.696005,265.503995 819.784,266.448 C818.871995,267.392005 818.416,268.727991 818.416,270.456 L818.416,285 L810.208,285 L810.208,258.216 L818.416,258.216 Z M864.904,271.608 C864.904,269.495989 864.312006,267.872006 863.128,266.736 C861.943994,265.599994 860.584008,265.032 859.048,265.032 C857.511992,265.032 856.152006,265.607994 854.968,266.76 C853.783994,267.912006 853.192,269.543989 853.192,271.656 C853.192,273.768011 853.783994,275.391994 854.968,276.528 C856.152006,277.664006 857.511992,278.232 859.048,278.232 C860.584008,278.232 861.943994,277.656006 863.128,276.504 C864.312006,275.351994 864.904,273.720011 864.904,271.608 L864.904,271.608 Z M844.84,271.656 C844.84,267.65598 846.023988,264.368013 848.392,261.792 C850.760012,259.215987 853.647983,257.928 857.056,257.928 C860.464017,257.928 863.079991,259.191987 864.904,261.72 L864.904,258.216 L873.112,258.216 L873.112,285 L864.904,285 L864.904,281.112 C862.91999,283.928014 860.264017,285.336 856.936,285.336 C853.607983,285.336 850.760012,284.056013 848.392,281.496 C846.023988,278.935987 844.84,275.65602 844.84,271.656 L844.84,271.656 Z" id="worona"></path>
            <path d="M617.07029,249.082274 C617.07029,249.082274 607.103005,249.082274 606.062881,258.511711 C606.062881,268.330346 606,282.977879 606,282.977879 C606,282.977879 606.934604,293.166517 617.07029,293.166517 C627.205975,293.166516 636.089573,293.166517 639.446836,293.166517 C643.139171,292.672002 648.503598,290.761938 649.858199,282.977878 C647.577554,270.372479 632.068087,252.678477 618.94049,249.082274 C616.904828,249.082274 617.07029,249.082274 617.07029,249.082274 Z M650,270.38875 L650,259.300888 C650,259.300888 650,249.063954 639.556867,249.003332 C636.017771,248.982788 632.66586,249.063954 629.84034,249.063954 C629.84034,249.063954 643.395177,254.614957 650,270.38875 Z" id="Combined-Shape"></path>
        </g>
    </g>
</svg>